<svg xmlns="http://www.w3.org/2000/svg" xmlns:xlink="http://www.w3.org/1999/xlink" x="0px" y="0px"
	 width="300px" height="300px" viewBox="0 0 100 100" >
<path fill="#FFFFFF" stroke="#1100C4" stroke-width="2" stroke-miterlimit="10" d="M6.5,49.408l0.362,26.803
	c0,7.341,17.963,13.479,40.235,13.479s40.235-5.764,40.235-13.107l-0.174-27.426"/>
<path fill="none" stroke="#1100C4" stroke-width="2" stroke-miterlimit="10" d="M87.159,49.156c0,7.353-18.052,13.311-40.323,13.311
	c-22.27,0-40.322-5.958-40.322-13.311c0-7.328,18.052-13.288,40.322-13.288C69.107,35.869,87.159,41.828,87.159,49.156z"/>
<path fill="#FFFFFF" stroke="#1100C4" stroke-width="2" stroke-miterlimit="10" d="M18.083,28.24l0.258,19.122
	c0,5.237,12.815,9.616,28.704,9.616s28.704-4.112,28.704-9.352l-0.124-19.565"/>
<path fill="none" stroke="#1100C4" stroke-width="2" stroke-miterlimit="10" d="M75.626,28.061c0,5.245-12.878,9.496-28.767,9.496
	c-15.888,0-28.766-4.251-28.766-9.496c0-5.228,12.878-9.479,28.766-9.479C62.748,18.581,75.626,22.833,75.626,28.061z"/>
<path fill="#FFFFFF" stroke="#1100C4" stroke-width="2" stroke-miterlimit="10" d="M28.333,7.875L28.5,24.71
	c0,3.376,8.26,6.198,18.5,6.198s18.5-2.651,18.5-6.027L65.42,7.76"/>
<path fill="none" stroke="#1100C4" stroke-width="2" stroke-miterlimit="10" d="M65.42,7.76c0,3.38-8.3,6.12-18.54,6.12
	c-10.24,0-18.54-2.74-18.54-6.12c0-3.37,8.3-6.11,18.54-6.11C57.12,1.65,65.42,4.39,65.42,7.76z"/>
</svg>
